<?xml version="1.0" encoding="UTF-8"?>
<svg id="Capa_1" xmlns="http://www.w3.org/2000/svg" version="1.1" viewBox="0 0 3487.2 1299.2">
  <!-- Generator: Adobe Illustrator 29.6.1, SVG Export Plug-In . SVG Version: 2.1.1 Build 9)  -->
  <defs>
    <style>
      .st0 {
        fill: #232323;
      }

      .st1 {
        fill: #e60c7e;
      }
    </style>
  </defs>
  <g>
    <g>
      <path class="st0" d="M341,382.7c0,7.5-.6,15-1.4,22.5H69.2c8.6,54,47.4,87.2,102,87.2s72-18.4,89.6-48.8h72.1c-26.5,70.3-87.3,113-161.7,113S0,481.4,0,381.9s73.6-174.7,171.2-174.7,169.8,78.5,169.8,175.5h0ZM171.2,269.1c-51.5,0-89,31.1-100.3,80.5h201.4c-12.3-50.6-50.4-80.5-101.2-80.5h0Z"/>
      <path class="st0" d="M598.5,548.5l-83-126.9-83.9,126.9h-75.3l118.3-172.2-109.3-160.9h77l73.5,112,76.1-112h75.3l-110.7,157.5,119.1,175.6h-77Z"/>
      <path class="st0" d="M913.6,486.3v62.2h-50.9c-73,0-118-45-118-118.6v-155.8h-59.6v-13.2l115.9-123.2h11.7v77.8h99.1v58.7h-98.6v150.4c0,39.7,22.1,61.8,62.4,61.8h38Z"/>
      <path class="st0" d="M1292.9,382.7c0,7.5-.6,15-1.4,22.5h-270.4c8.6,54,47.4,87.2,102,87.2s72-18.4,89.6-48.8h72.1c-26.5,70.3-87.3,113-161.7,113s-171.2-75.2-171.2-174.7,73.6-174.7,171.2-174.7,169.8,78.5,169.8,175.5h0ZM1123,269.1c-51.5,0-89,31.1-100.3,80.5h201.4c-12.3-50.6-50.4-80.5-101.2-80.5h0Z"/>
      <path class="st0" d="M1555.2,213.5v64.7h-36.2c-56.6,0-84.9,32.3-84.9,92.7v177.7h-68.5V215.4h46.3l11.6,45.5c23.8-31.6,56.5-47.3,102-47.3h29.6Z"/>
      <path class="st0" d="M1607.6,93.1h70.8v70.6h-70.8v-70.6ZM1608.7,215.4h68.5v333.1h-68.5V215.4Z"/>
      <path class="st0" d="M1928.3,556.6c-101.9,0-178.1-74.6-178.1-174.7s76.2-174.7,178.1-174.7,178.1,74.4,178.1,174.7-76.4,174.7-178.1,174.7h0ZM2036.7,381.9c0-63.8-45.4-109.3-108.4-109.3s-108.4,45.5-108.4,109.3,45.3,109.3,108.4,109.3,108.4-45.5,108.4-109.3Z"/>
      <path class="st0" d="M2368.9,213.5v64.7h-36.2c-56.6,0-84.9,32.3-84.9,92.7v177.7h-68.5V215.4h46.3l11.6,45.5c23.8-31.6,56.5-47.3,102-47.3h29.6Z"/>
    </g>
    <g>
      <path class="st0" d="M1419.8,930.1c0,103.8-72.8,177.8-174.7,177.8s-57.7-7.9-81.2-22.1v131.1h-113.4v-453.4h78l14.4,26.5c27.4-23.7,62.7-37.4,102.2-37.4,101.9,0,174.7,73.7,174.7,177.5ZM1304.3,930.1c0-43.8-31.6-76.2-74.6-76.2s-74.6,32.5-74.6,76.2,31.6,76.2,74.6,76.2,74.6-32.5,74.6-76.2Z"/>
      <path class="st0" d="M1472.4,643.3h114.7v453.4h-114.7v-453.4Z"/>
      <path class="st0" d="M1655,953.7v-190.1h114.7v185.1c0,35.2,18.9,55.8,49.6,55.8s49.2-21,49.2-55.8v-185.1h114.7v190.1c0,93.2-65.5,153.9-163.9,153.9s-164.3-60.7-164.3-153.9Z"/>
      <path class="st0" d="M2179.6,1107.6c-90.8,0-146-48-147-120.1h110.4c0,24.4,17,35.6,38.7,35.6s32.7-8.6,32.7-25.8-25.2-24.7-57.2-30c-51.7-8.4-120.1-24-120.1-104.8s56.9-109.9,142.3-109.9,139.8,45.1,141.1,112.6h-107.5c0-21.3-14.3-31.2-35.1-31.2s-30.8,9.1-30.8,24.5,25.5,23.4,57.1,29c52.6,9.3,122.6,20.3,122.6,104.8s-58.8,115.2-147.3,115.2h0Z"/>
    </g>
  </g>
  <g>
    <path class="st1" d="M3464.5,603c30.2,30.2,30.2,79.1,0,109.2l-250.9,250.9-268.1,268c66.3-69.7,107-164.1,107-268s-42.2-201.6-110.7-271.7c-2.2-2.2-4.4-4.5-6.6-6.6l-27.2-27.2-329.5-329.5c-30.2-30.2-30.2-79.2,0-109.4l196.1-196.1c30.2-30.2,79.2-30.2,109.4,0l329.5,329.5,250.9,250.9Z"/>
    <path class="st1" d="M2945.6,1231.1c-.1.2-.3.3-.4.4l-13.2,13.2c-.2.2-.3.3-.5.5l-20.1,20.1c-45.3,45.2-118.7,45.2-163.9,0l-168.9-168.9c-30.1-30.2-30.1-79.1,0-109.3l297.7-297.7s287.8,226.9,69.2,541.7Z"/>
  </g>
</svg>